<svg width="44" height="24" viewBox="0 0 44 24" fill="none" xmlns="http://www.w3.org/2000/svg">
<path d="M39.1264 0H4.22268C1.93172 0 0.0745239 1.85719 0.0745239 4.14816V19.8518C0.0745239 22.1428 1.93172 24 4.22268 24H39.1264C41.4173 24 43.2745 22.1428 43.2745 19.8518V4.14816C43.2745 1.85719 41.4173 0 39.1264 0Z" fill="#FFB3C7"/>
<path d="M39.2364 14.0604C38.6712 14.0604 38.2131 14.5227 38.2131 15.093C38.2131 15.6633 38.6712 16.1257 39.2364 16.1257C39.8016 16.1257 40.2599 15.6633 40.2599 15.093C40.2599 14.5227 39.8016 14.0604 39.2364 14.0604ZM35.8694 13.262C35.8694 12.4811 35.208 11.8483 34.3921 11.8483C33.5761 11.8483 32.9146 12.4812 32.9146 13.262C32.9146 14.0428 33.5761 14.6759 34.3921 14.6759C35.2081 14.6759 35.8694 14.0428 35.8694 13.262ZM35.8749 10.5143H37.5054V16.0095H35.8749V15.6583C35.4143 15.9753 34.8583 16.1616 34.2586 16.1616C32.6716 16.1616 31.385 14.8634 31.385 13.262C31.385 11.6605 32.6716 10.3624 34.2586 10.3624C34.8583 10.3624 35.4143 10.5487 35.8749 10.8658V10.5143ZM22.8266 11.2301V10.5143H21.1572V16.0095H22.8303V13.4439C22.8303 12.5783 23.7601 12.113 24.4052 12.113C24.4118 12.113 24.418 12.1137 24.4246 12.1138V10.5148C23.7625 10.5148 23.1535 10.8008 22.8266 11.2301ZM18.6683 13.262C18.6683 12.4812 18.0068 11.8483 17.1908 11.8483C16.3749 11.8483 15.7134 12.4812 15.7134 13.262C15.7134 14.0429 16.3749 14.6759 17.1908 14.6759C18.0068 14.6759 18.6683 14.0429 18.6683 13.262ZM18.6736 10.5143H20.3042V16.0095H18.6736V15.6583C18.213 15.9753 17.657 16.1617 17.0574 16.1617C15.4703 16.1617 14.1837 14.8634 14.1837 13.262C14.1837 11.6605 15.4703 10.3624 17.0574 10.3624C17.657 10.3624 18.213 10.5487 18.6736 10.8658V10.5143ZM28.4877 10.3665C27.8364 10.3665 27.2199 10.5705 26.8078 11.1335V10.5146H25.1844V16.0096H26.8278V13.1218C26.8278 12.2861 27.3831 11.877 28.0518 11.877C28.7684 11.877 29.1804 12.3089 29.1804 13.1105V16.0096H30.8089V12.5151C30.8089 11.2362 29.8013 10.3665 28.4877 10.3665ZM11.8087 16.0096H13.5153V8.06546H11.8087V16.0096ZM4.31195 16.0117H6.11905V8.06398H4.31195V16.0117ZM10.6326 8.06398C10.6326 9.78459 9.96809 11.3852 8.78401 12.5749L11.2819 16.012H9.04993L6.33525 12.2767L7.03586 11.7472C8.19775 10.869 8.86418 9.52652 8.86418 8.06396L10.6326 8.06398Z" fill="#0A0B09"/>
</svg>
