<svg width="95" height="24" viewBox="0 0 95 24" fill="none" xmlns="http://www.w3.org/2000/svg">
<path d="M34.6699 14.5448C36.042 14.5437 37.3686 14.0727 38.4103 13.2168C39.4519 12.3608 40.1401 11.1763 40.3505 9.87685C40.7944 7.16822 38.586 4.80369 35.4568 4.80369H30.4135C30.3189 4.80252 30.2271 4.83417 30.1549 4.8928C30.0827 4.95143 30.0351 5.03308 30.0209 5.12271L27.7732 18.7951C27.765 18.845 27.7683 18.8961 27.7827 18.9447C27.7971 18.9933 27.8223 19.0384 27.8565 19.0769C27.8908 19.1153 27.9333 19.1462 27.9812 19.1674C28.0291 19.1886 28.0812 19.1996 28.1339 19.1997H30.8027C30.8971 19.2006 30.9887 19.1689 31.0606 19.1102C31.1325 19.0516 31.18 18.9701 31.1942 18.8807L31.8554 14.8644C31.8696 14.7748 31.917 14.693 31.9891 14.6343C32.0611 14.5756 32.1529 14.5438 32.2475 14.5448H34.6699ZM36.9033 9.7536C36.7383 10.7548 35.9309 11.4926 34.3854 11.4926H32.4085L33.0077 7.84988H34.9487C36.5477 7.85315 37.0672 8.75675 36.9033 9.75633V9.7536ZM51.9133 9.11012H49.3794C49.2849 9.10907 49.1931 9.14076 49.1209 9.19936C49.0488 9.25797 49.0012 9.33956 48.9868 9.42914L48.9048 9.93302C48.9048 9.93302 46.9377 7.87441 43.4563 9.26499C41.459 10.0617 40.5008 11.708 40.0933 12.9132C40.0933 12.9132 38.7976 16.5767 41.7265 18.5939C41.7265 18.5939 44.4413 20.533 47.4993 18.4739L47.4464 18.7951C47.4382 18.8451 47.4414 18.8961 47.4557 18.9448C47.4701 18.9935 47.4952 19.0386 47.5295 19.077C47.5638 19.1155 47.6064 19.1464 47.6543 19.1676C47.7022 19.1887 47.7544 19.1997 47.8072 19.1997H50.3399C50.4345 19.2009 50.5264 19.1692 50.5985 19.1106C50.6707 19.052 50.7183 18.9703 50.7326 18.8807L52.2735 9.51475C52.2816 9.4648 52.2784 9.41376 52.264 9.36513C52.2496 9.31649 52.2244 9.27141 52.1902 9.23298C52.1559 9.19455 52.1134 9.16367 52.0655 9.14247C52.0176 9.12126 51.9661 9.11022 51.9133 9.11012ZM48.1879 14.2863C48.0887 14.9389 47.746 15.5349 47.2232 15.9637C46.7004 16.3925 46.033 16.625 45.345 16.6182C45.0755 16.6211 44.8072 16.5834 44.55 16.5064C43.4575 16.1704 42.8344 15.1638 43.0136 14.0731C43.1129 13.4187 43.457 12.8213 43.982 12.3922C44.5069 11.963 45.1768 11.7315 45.8668 11.7408C46.1365 11.738 46.4051 11.7762 46.6623 11.8531C47.7508 12.1879 48.3699 13.1946 48.1907 14.2863H48.1879Z" fill="#003087"/>
<path d="M71.1518 14.5448C72.5248 14.5445 73.8523 14.0738 74.8949 13.2178C75.9376 12.3618 76.6266 11.1769 76.8376 9.87684C77.2809 7.16821 75.0731 4.80368 71.9428 4.80368H66.9012C66.8067 4.80276 66.715 4.83451 66.643 4.8931C66.571 4.9517 66.5235 5.03321 66.5091 5.12269L64.2546 18.7989C64.2417 18.8742 64.255 18.9515 64.2926 19.0188C64.3301 19.0862 64.3898 19.1398 64.4623 19.1714C64.5102 19.1928 64.5624 19.2039 64.6153 19.2041H67.2847C67.3792 19.205 67.471 19.1731 67.543 19.1144C67.615 19.0557 67.6625 18.9741 67.6768 18.8845L68.3385 14.8682C68.3526 14.7785 68.4 14.6967 68.4721 14.638C68.5442 14.5792 68.636 14.5475 68.7306 14.5486L71.1518 14.5448ZM73.3853 9.75359C73.2203 10.7548 72.4128 11.4926 70.8668 11.4926H68.8905L69.4903 7.84986H71.4312C73.0291 7.85314 73.5498 8.75674 73.3853 9.75632V9.75359ZM88.3947 9.11011H85.8637C85.7692 9.10919 85.6776 9.14094 85.6055 9.19953C85.5335 9.25813 85.486 9.33964 85.4716 9.42912L85.3885 9.933C85.3885 9.933 83.4219 7.8744 79.9406 9.26498C77.9438 10.0617 76.985 11.708 76.577 12.9132C76.577 12.9132 75.2819 16.5767 78.2102 18.5939C78.2102 18.5939 80.9256 20.533 83.9836 18.4739L83.9307 18.7951C83.9178 18.8704 83.9311 18.9477 83.9687 19.015C84.0062 19.0823 84.0658 19.1359 84.1384 19.1675C84.1862 19.1893 84.2385 19.2003 84.2914 19.2003H86.8242C86.9189 19.2016 87.0108 19.17 87.083 19.1112C87.1551 19.0524 87.2025 18.9705 87.2163 18.8807L88.7578 9.51474C88.7654 9.46463 88.7618 9.41354 88.7473 9.36485C88.7328 9.31616 88.7076 9.27097 88.6736 9.23226C88.6393 9.19347 88.5966 9.1624 88.5484 9.14129C88.5002 9.12017 88.4477 9.10952 88.3947 9.11011ZM84.6698 14.2863C84.5718 14.9394 84.2294 15.536 83.7064 15.965C83.1833 16.3941 82.5153 16.6262 81.8269 16.6181C81.5571 16.6212 81.2884 16.5835 81.0309 16.5063C79.9377 16.1704 79.3141 15.1638 79.4933 14.0731C79.5923 13.4204 79.935 12.8243 80.4578 12.3954C80.9806 11.9665 81.648 11.7339 82.3362 11.7408C82.6065 11.738 82.8751 11.7757 83.1323 11.8531C84.2322 12.1879 84.8531 13.1946 84.6727 14.2863H84.6698Z" fill="#0070E0"/>
<path d="M61.2125 9.34207L58.1585 14.2822L56.609 9.37861C56.5847 9.30079 56.5348 9.23261 56.4667 9.18425C56.3986 9.13589 56.316 9.10995 56.2312 9.11031H53.4759C53.4284 9.10943 53.3814 9.11962 53.3389 9.13998C53.2965 9.16035 53.2598 9.19029 53.232 9.22724C53.2042 9.26419 53.1863 9.30704 53.1796 9.35212C53.1729 9.39719 53.1778 9.44315 53.1937 9.48603L55.9706 17.7455L53.4594 21.6381C53.4311 21.6809 53.4153 21.7303 53.4138 21.781C53.4122 21.8317 53.425 21.8819 53.4508 21.9263C53.4765 21.9706 53.5143 22.0074 53.5601 22.0329C53.6059 22.0584 53.658 22.0716 53.7109 22.071H56.6796C56.7645 22.0715 56.848 22.0507 56.922 22.0107C56.9959 21.9707 57.0577 21.9129 57.1013 21.8431L64.8583 9.54493C64.8863 9.50201 64.9016 9.45267 64.9027 9.40209C64.9039 9.35152 64.8908 9.30159 64.8648 9.25755C64.8388 9.21352 64.8009 9.177 64.7551 9.15186C64.7093 9.12671 64.6573 9.11387 64.6045 9.11467H61.637C61.5517 9.11372 61.4676 9.13421 61.3931 9.17411C61.3186 9.21401 61.2564 9.27192 61.2125 9.34207Z" fill="#003087"/>
<path d="M91.2444 5.11879L88.9899 18.795C88.977 18.8703 88.9904 18.9476 89.0279 19.0149C89.0655 19.0823 89.1251 19.1359 89.1976 19.1674C89.2454 19.1893 89.2978 19.2002 89.3507 19.2002H92.0189C92.1135 19.2013 92.2053 19.1696 92.2774 19.1108C92.3495 19.0521 92.3969 18.9703 92.4109 18.8806L94.666 5.2044C94.6744 5.15445 94.6714 5.10333 94.657 5.05463C94.6427 5.00593 94.6174 4.96083 94.5829 4.92247C94.5486 4.88409 94.506 4.85326 94.4581 4.83209C94.4102 4.81091 94.358 4.79989 94.3053 4.79977H91.6365C91.542 4.79885 91.4504 4.8306 91.3784 4.8892C91.3063 4.94779 91.2588 5.02931 91.2444 5.11879Z" fill="#0070E0"/>
<path d="M20.2085 11.0485C19.636 14.1759 16.9735 16.5399 13.4796 16.5399H11.2615C10.8092 16.5399 10.3534 16.9412 10.2811 17.3851L9.30975 23.2937C9.25342 23.6302 9.08896 23.742 8.73332 23.742H5.16547C4.8047 23.742 4.71935 23.6264 4.77341 23.2856L5.18311 19.1994L0.900558 18.9873C0.540359 18.9873 0.41005 18.7992 0.461263 18.4545L3.38326 0.698748C3.43959 0.362282 3.6581 0.217771 4.01261 0.217771H11.4231C14.9904 0.217771 17.2472 2.51904 17.5232 5.50306C19.6457 6.87728 20.6375 8.7063 20.2085 11.0485Z" fill="#001C64"/>
<path d="M6.26888 12.5836L5.18311 19.1994L4.49747 23.3511C4.48473 23.4311 4.49011 23.5128 4.51327 23.5907C4.53642 23.6685 4.57679 23.7407 4.63164 23.8023C4.6865 23.8638 4.75454 23.9134 4.83115 23.9475C4.90776 23.9816 4.99114 23.9995 5.07561 24H8.84376C9.01575 23.9998 9.18204 23.9408 9.31273 23.8337C9.44342 23.7265 9.52995 23.5782 9.55676 23.4154L10.5486 17.3841C10.5755 17.2214 10.6621 17.0732 10.7928 16.9662C10.9235 16.8591 11.0897 16.8002 11.2616 16.8001H13.4797C15.1699 16.798 16.8037 16.2173 18.0866 15.1627C19.3694 14.1082 20.217 12.6491 20.4765 11.0485C20.8606 8.69982 19.6275 6.56161 17.517 5.50531C17.5122 5.75555 17.4894 6.00518 17.4487 6.25241C17.1883 7.85213 16.3403 9.31016 15.0577 10.3639C13.775 11.4177 12.1419 11.9979 10.4524 12.0001H6.98131C6.80952 12.0002 6.64338 12.059 6.51279 12.1659C6.38219 12.2729 6.2957 12.421 6.26888 12.5836Z" fill="#0070E0"/>
<path d="M5.18311 19.1994L0.795322 19.1998C0.710668 19.1994 0.627097 19.1815 0.550304 19.1474C0.473512 19.1132 0.405303 19.0636 0.350326 19.0019C0.295349 18.9402 0.254895 18.8679 0.231722 18.7899C0.20855 18.7119 0.203203 18.63 0.216045 18.5498L3.17275 0.584588C3.19933 0.421775 3.28571 0.273411 3.41633 0.16623C3.54695 0.0590495 3.71322 9.87971e-05 3.88518 0H11.4192C14.9865 0 17.5801 2.48777 17.5192 5.50178C16.5698 5.03236 15.5154 4.79148 14.447 4.79995H8.16603C7.99402 4.79999 7.82767 4.85882 7.69687 4.96588C7.56607 5.07293 7.47941 5.22119 7.45246 5.38399L6.26888 12.5836L5.18311 19.1994Z" fill="#003087"/>
</svg>
