<svg width="73" height="24" viewBox="0 0 73 24" fill="none" xmlns="http://www.w3.org/2000/svg">
<path d="M59.548 24H12.6058C5.68576 24 0.0769043 18.6279 0.0769043 12C0.0769043 5.37209 5.68576 0 12.6058 0H59.548C66.4681 0 72.0769 5.37209 72.0769 12C72.0815 18.6235 66.4681 24 59.548 24Z" fill="#B2FCE4"/>
<path d="M61.4463 9.13096L58.2731 7.39113C57.2169 6.81119 55.8967 7.53939 55.8967 8.70799V8.90421C55.8967 9.01322 55.9558 9.11352 56.056 9.16584L56.7981 9.57136C57.003 9.68474 57.2579 9.54084 57.2579 9.3141V8.84753C57.2579 8.61642 57.5174 8.47253 57.7268 8.5859L60.636 10.1862C60.8454 10.2996 60.8454 10.5917 60.636 10.7051L57.7268 12.3054C57.5174 12.4187 57.2579 12.2749 57.2579 12.0437V11.8126C57.2579 10.644 55.9376 9.91148 54.8814 10.4958L51.7082 12.2356C50.6475 12.8199 50.6475 14.2894 51.7082 14.8737L54.8814 16.6135C55.9376 17.1935 57.2579 16.4653 57.2579 15.2967V15.1004C57.2579 14.9914 57.1987 14.8911 57.0986 14.8388L56.3565 14.4333C56.1516 14.3199 55.8967 14.4638 55.8967 14.6905V15.1571C55.8967 15.3882 55.6372 15.5321 55.4277 15.4187L52.5186 13.8185C52.3092 13.7051 52.3092 13.4129 52.5186 13.2996L55.4277 11.6993C55.6372 11.5859 55.8967 11.7298 55.8967 11.9609V12.192C55.8967 13.3606 57.2169 14.0932 58.2731 13.5089L61.4463 11.769C62.5071 11.1804 62.5071 9.71526 61.4463 9.13096Z" fill="black"/>
<path d="M51.1118 9.41858L47.4242 16.7136H45.8945L47.274 13.9883L45.1024 9.41858H46.673L48.0661 12.4796L49.5867 9.41858H51.1118Z" fill="black"/>
<path d="M14.2401 12.0087C14.2401 11.1366 13.58 10.5262 12.7696 10.5262C11.9592 10.5262 11.2991 11.1497 11.2991 12.0087C11.2991 12.859 11.9592 13.4913 12.7696 13.4913C13.58 13.4913 14.2401 12.8808 14.2401 12.0087ZM14.2538 14.5988V13.9273C13.8531 14.3939 13.2567 14.6817 12.5465 14.6817C11.0624 14.6817 9.93787 13.5436 9.93787 12.0087C9.93787 10.4869 11.1079 9.32703 12.5784 9.32703C13.2704 9.32703 13.8531 9.61918 14.2538 10.0727V9.4186H15.5831V14.5988H14.2538Z" fill="black"/>
<path d="M22.0478 13.4476C21.5834 13.4476 21.4514 13.2819 21.4514 12.8458V10.5479H22.3073V9.4185H21.4514V8.15397H20.0901V9.4185H18.3328V8.90397C18.3328 8.46792 18.5058 8.30222 18.9838 8.30222H19.2843V7.29932H18.6287C17.5042 7.29932 16.9716 7.65251 16.9716 8.72955V9.42286H16.2158V10.5479H16.9716V14.5987H18.3328V10.5479H20.0901V13.0857C20.0901 14.1409 20.5135 14.5987 21.6153 14.5987H22.3164V13.4476H22.0478Z" fill="black"/>
<path d="M26.9374 11.5421C26.8418 10.8706 26.2681 10.4651 25.5944 10.4651C24.9251 10.4651 24.3697 10.8575 24.2331 11.5421H26.9374ZM24.2195 12.3488C24.3151 13.1162 24.8887 13.5523 25.6171 13.5523C26.1908 13.5523 26.6324 13.295 26.8919 12.8808H28.2895C27.9663 13.9796 26.9374 14.6816 25.5852 14.6816C23.9509 14.6816 22.8036 13.5828 22.8036 12.0174C22.8036 10.452 24.0146 9.32263 25.6171 9.32263C27.2288 9.32263 28.3988 10.4607 28.3988 12.0174C28.3988 12.1308 28.3897 12.2441 28.3669 12.3488H24.2195Z" fill="black"/>
<path d="M37.0671 12.0087C37.0671 11.1715 36.4069 10.5261 35.5965 10.5261C34.7862 10.5261 34.126 11.1497 34.126 12.0087C34.126 12.859 34.7862 13.4912 35.5965 13.4912C36.4069 13.4912 37.0671 12.8502 37.0671 12.0087ZM32.783 16.7136V9.41856H34.1124V10.0901C34.513 9.61478 35.1094 9.32263 35.8196 9.32263C37.281 9.32263 38.4283 10.4738 38.4283 11.9956C38.4283 13.5174 37.2583 14.6773 35.7878 14.6773C35.1049 14.6773 34.5449 14.42 34.1534 13.984V16.7093H32.783V16.7136Z" fill="black"/>
<path d="M43.2222 12.0087C43.2222 11.1366 42.5621 10.5262 41.7517 10.5262C40.9414 10.5262 40.2812 11.1497 40.2812 12.0087C40.2812 12.859 40.9414 13.4913 41.7517 13.4913C42.5621 13.4913 43.2222 12.8808 43.2222 12.0087ZM43.2359 14.5988V13.9273C42.8353 14.3939 42.2389 14.6817 41.5286 14.6817C40.0445 14.6817 38.92 13.5436 38.92 12.0087C38.92 10.4869 40.09 9.32703 41.5605 9.32703C42.2525 9.32703 42.8353 9.61918 43.2359 10.0727V9.4186H44.5653V14.5988H43.2359Z" fill="black"/>
<path d="M30.3838 9.92438C30.3838 9.92438 30.7207 9.32263 31.5538 9.32263C31.9089 9.32263 32.1366 9.44037 32.1366 9.44037V10.7616C32.1366 10.7616 31.6358 10.4651 31.1759 10.5261C30.7161 10.5872 30.4248 10.9883 30.4248 11.529V14.5944H29.0499V9.41856H30.3792V9.92438H30.3838Z" fill="black"/>
</svg>
