<svg width="60" height="24" viewBox="0 0 60 24" fill="none" xmlns="http://www.w3.org/2000/svg">
<g clip-path="url(#clip0_4314_96902)">
<path fill-rule="evenodd" clip-rule="evenodd" d="M3.87362 21.9328C3.143 21.9328 2.7708 21.5664 2.7708 20.9643C2.7708 19.8415 4.00044 19.464 6.24331 19.2212C6.24331 20.7173 5.24939 21.9328 3.86673 21.9328H3.87362ZM4.83859 13.5187C3.23536 13.5187 1.39227 14.2864 0.391452 15.0991L1.30542 17.064C2.10772 16.3159 3.40492 15.6759 4.57529 15.6759C5.68777 15.6759 6.30259 16.0549 6.30259 16.8184C6.30259 17.3306 5.89592 17.5903 5.1267 17.6928C2.25109 18.0717 -0.00280762 18.8801 -0.00280762 21.1356C-0.00280762 22.9236 1.24752 24.0057 3.2009 24.0057C4.59597 24.0057 5.83665 23.217 6.42666 22.1812V23.725H9.02657V17.2563C9.02657 14.5896 7.20829 13.5131 4.83997 13.5131L4.83859 13.5187Z" fill="#101820"/>
<path fill-rule="evenodd" clip-rule="evenodd" d="M30.9329 13.8092V23.7124H33.7147V18.9405C33.7147 16.6738 35.0629 16.0071 36.0017 16.0071C36.4243 16.0038 36.8384 16.1283 37.1914 16.365L37.7001 13.7475C37.3059 13.5868 36.8839 13.509 36.4594 13.5187C35.0298 13.5187 34.131 14.1629 33.5383 15.4738V13.8092H30.9329Z" fill="#101820"/>
<path fill-rule="evenodd" clip-rule="evenodd" d="M50.5921 13.5187C49.1212 13.5187 48.0211 14.4029 47.449 15.2563C46.9183 14.1545 45.7948 13.5187 44.4438 13.5187C42.9743 13.5187 41.9556 14.3496 41.4855 15.3068V13.8092H38.8029V23.7124H41.5875V18.6135C41.5875 16.7889 42.529 15.9061 43.4072 15.9061C44.2026 15.9061 44.9332 16.4296 44.9332 17.7812V23.7124H47.7123V18.6135C47.7123 16.7622 48.6304 15.9061 49.5499 15.9061C50.286 15.9061 51.0663 16.4506 51.0663 17.7615V23.7124H53.8454V16.8661C53.8454 14.6415 52.3745 13.5187 50.5976 13.5187" fill="#101820"/>
<path fill-rule="evenodd" clip-rule="evenodd" d="M24.1629 13.8092H21.6429V12.8029C21.6429 11.492 22.3777 11.1187 23.0104 11.1187C23.4425 11.1245 23.8673 11.2326 24.2511 11.4345L25.1086 9.43732C25.1086 9.43732 24.2387 8.85907 22.6575 8.85907C20.8806 8.85907 18.8583 9.87942 18.8583 13.0808V13.8092H14.6469V12.8029C14.6469 11.492 15.3803 11.1187 16.0144 11.1187C16.4471 11.1187 16.8733 11.2271 17.2551 11.4345L18.1125 9.43732C17.6011 9.13275 16.7781 8.85907 15.6629 8.85907C13.8859 8.85907 11.8636 9.87942 11.8636 13.0808V13.8092H10.2535V15.9931H11.8678V23.7124H14.6469V15.9931H18.8638V23.7124H21.6429V15.9931H24.1629V13.8092Z" fill="#101820"/>
<path d="M28.599 13.8092H25.8226V23.7082H28.599V13.8092Z" fill="#101820"/>
<path fill-rule="evenodd" clip-rule="evenodd" d="M25.9247 12.1264H28.6445C30.2312 7.04714 35.6143 2.58258 42.0162 2.58258C49.8022 2.58258 56.5308 8.61767 56.5308 18.0128C56.5545 19.9412 56.2943 21.8624 55.7588 23.7124H58.3987L58.4249 23.6198C58.8697 21.7883 59.0892 19.9077 59.0783 18.0212C59.0783 7.54398 51.5791 0.00292969 42.0218 0.00292969C34.5143 0.00292969 27.8229 5.30819 25.926 12.1292L25.9247 12.1264Z" fill="#4A4AF4"/>
</g>
<defs>
<clipPath id="clip0_4314_96902">
<rect width="59.0769" height="24" fill="white"/>
</clipPath>
</defs>
</svg>
